# xmcd CD database file
#
# Track frame offsets:
#	150
#	16604
#	27425
#	37788
#	56295
#	73444
#	88681
#	106063
#	119275
#	134640
#	160505
#	176537
#
# Disc length: 2644 seconds
#
# Revision: 0
# Processed by: cddbd v1.5.2PL0 Copyright (c) Steve Scherf et al.
# Submitted via: CDex 1.51
#
DISCID=910a520c
DTITLE=Oh Susanna - Short Stories
DYEAR=2005
DGENRE=Country
TTITLE0=Pretty Face
TTITLE1=Beauty Queen
TTITLE2=Bullies
TTITLE3=Three Shots
TTITLE4=Greyhound Blues
TTITLE5=Miss Liberty
TTITLE6=Schoolyard
TTITLE7=Pretty Penny
TTITLE8=Holy Roller
TTITLE9=Billy 4
TTITLE10=Filled with good
TTITLE11=Once Long Ago (Bonus Track)
EXTD=YEAR: 2005
EXTT0=
EXTT1=
EXTT2=
EXTT3=
EXTT4=
EXTT5=
EXTT6=
EXTT7=
EXTT8=
EXTT9=
EXTT10=
EXTT11=
PLAYORDER=
